# xmcd
#
# Track frame offsets:
#	150
#	14842
#	25410
#	37827
#	52867
#	67284
#	80555
#	97445
#	109699
#	122977
#	138317
#	155833
#	173273
#	187825
#	196080
#	210706
#	244561
#
# Disc length: 3459 seconds
# Revision: 0
# Processed by: cddbd v1.5.2PL0 Copyright (c) Steve Scherf et al.
# Submitted via: dBpowerAMP V12.0
#
DISCID=eb0d8111
DTITLE=Adam Franklin and Elsie Franklin - Franklin and Franklin Live
DYEAR=2018
DGENRE=Blues
TTITLE0=Nothing In Rambling
TTITLE1=Tapping That Thing
TTITLE2=Falling Rain Blues
TTITLE3=I Can't Be Satisfied
TTITLE4=By The Mark
TTITLE5=Lonesome Train That Carried My Baby Away
TTITLE6=Small Town Blues
TTITLE7=Can't Believe You're Gone
TTITLE8=Beams Of Heaven
TTITLE9=Black Night
TTITLE10=Catman Blues
TTITLE11=This Train
TTITLE12=If Your Lord Deserts You
TTITLE13=State St. Rag
TTITLE14=Red Clay Halo
TTITLE15=Elvis Presley Blues
TTITLE16=Crazy Crazy Baby
EXTD=
EXTT0=
EXTT1=
EXTT2=
EXTT3=
EXTT4=
EXTT5=
EXTT6=
EXTT7=
EXTT8=
EXTT9=
EXTT10=
EXTT11=
EXTT12=
EXTT13=
EXTT14=
EXTT15=
EXTT16=
PLAYORDER=
